# Blender 3.1.0
# www.blender.org
mtllib basket.mtl
o basket
v 0.000000 0.150000 0.300000
v 0.000000 0.150000 0.000000
v 0.000000 -0.000000 0.300000
v 0.000000 0.000000 0.000000
v 0.300000 0.150000 0.300000
v 0.300000 -0.000000 0.300000
v 0.300000 0.150000 0.000000
v 0.300000 0.000000 0.000000
v 0.260000 0.150000 0.260000
v 0.260000 0.150000 0.040000
v 0.040000 0.150000 0.040000
v 0.040000 0.150000 0.260000
v 0.040000 0.040000 0.260000
v 0.040000 0.040000 0.040000
v 0.260000 0.040000 0.040000
v 0.260000 0.040000 0.260000
vn -0.0000 -0.0000 -0.0010
vn -0.0000 -0.0000 0.0010
vn -0.0000 0.0010 -0.0000
vn -0.0010 -0.0000 -0.0000
vn -0.0000 -0.0010 -0.0000
vn 0.0010 -0.0000 -0.0000
s 0
f 2//1 7//1 8//1 4//1
f 5//2 1//2 3//2 6//2
f 12//3 1//3 5//3 7//3 10//3 9//3
f 10//3 7//3 2//3 1//3 12//3 11//3
f 16//3 15//3 14//3 13//3
f 1//4 2//4 4//4 3//4
f 14//2 15//2 10//2 11//2
f 8//5 6//5 3//5 4//5
f 13//6 14//6 11//6 12//6
f 16//1 13//1 12//1 9//1
f 7//6 5//6 6//6 8//6
f 15//4 16//4 9//4 10//4
