# Blender 3.1.0
# www.blender.org
mtllib table.mtl
o table
v 0.000000 1.000000 1.425000
v 0.000000 1.000000 0.075000
v 0.075000 1.000000 1.425000
v 0.075000 1.000000 0.075000
v 1.500000 1.000000 0.075000
v 1.500000 1.000000 1.425000
v 1.425000 1.000000 0.075000
v 1.425000 1.000000 1.425000
v 1.425000 1.000000 1.500000
v 0.075000 1.000000 1.500000
v 1.425000 1.000000 0.000000
v 0.075000 1.000000 0.000000
v 0.075000 0.000000 0.000000
v 0.000000 0.000000 0.000000
v 0.000000 1.050000 0.000000
v 1.500000 1.050000 0.000000
v 1.425000 0.000000 0.000000
v 1.500000 0.000000 0.000000
v 0.000000 -0.000000 1.425000
v 0.000000 -0.000000 1.500000
v 0.000000 1.050000 1.500000
v 0.000000 -0.000000 0.075000
v 1.425000 -0.000000 1.500000
v 1.500000 -0.000000 1.500000
v 1.500000 1.050000 1.500000
v 0.075000 -0.000000 1.500000
v 1.500000 -0.000000 0.075000
v 1.500000 -0.000000 1.425000
v 0.075000 -0.000000 1.425000
v 1.425000 -0.000000 0.075000
v 1.425000 -0.000000 1.425000
v 0.075000 -0.000000 0.075000
vn -0.0000 -0.0010 -0.0000
vn -0.0000 -0.0000 0.0010
vn 0.0010 -0.0000 -0.0000
vn -0.0000 -0.0000 -0.0010
vn -0.0010 -0.0000 -0.0000
vn -0.0000 0.0010 -0.0000
s 0
f 9//1 10//1 3//1 8//1
f 7//1 4//1 12//1 11//1
f 28//1 24//1 23//1 31//1
f 22//2 32//2 4//2 2//2
f 27//3 18//3 16//3 25//3 24//3 28//3 6//3 5//3
f 13//4 14//4 15//4 16//4 18//4 17//4 11//4 12//4
f 19//5 20//5 21//5 15//5 14//5 22//5 2//5 1//5
f 28//4 31//4 8//4 6//4
f 23//2 24//2 25//2 21//2 20//2 26//2 10//2 9//2
f 30//2 27//2 5//2 7//2
f 32//3 13//3 12//3 4//3
f 31//5 23//5 9//5 8//5
f 1//1 2//1 4//1 7//1 5//1 6//1 8//1 3//1
f 29//4 19//4 1//4 3//4
f 17//5 30//5 7//5 11//5
f 20//1 19//1 29//1 26//1
f 26//3 29//3 3//3 10//3
f 22//1 14//1 13//1 32//1
f 18//1 27//1 30//1 17//1
f 21//6 25//6 16//6 15//6
